<?xml version="1.0" encoding="UTF-8" standalone="no"?>
<!-- Generator: Adobe Illustrator 19.1.0, SVG Export Plug-In . SVG Version: 6.00 Build 0)  -->

<svg
   xmlns:dc="http://purl.org/dc/elements/1.1/"
   xmlns:cc="http://creativecommons.org/ns#"
   xmlns:rdf="http://www.w3.org/1999/02/22-rdf-syntax-ns#"
   xmlns:svg="http://www.w3.org/2000/svg"
   xmlns="http://www.w3.org/2000/svg"
   xmlns:sodipodi="http://sodipodi.sourceforge.net/DTD/sodipodi-0.dtd"
   xmlns:inkscape="http://www.inkscape.org/namespaces/inkscape"
   version="1.1"
   id="Capa_1"
   x="0px"
   y="0px"
   viewBox="0 0 451 451"
   style="enable-background:new 0 0 451 451;"
   xml:space="preserve"
   sodipodi:docname="magnifying-glass.svg"
   inkscape:version="0.92.4 (5da689c313, 2019-01-14)"><metadata
   id="metadata41"><rdf:RDF><cc:Work
       rdf:about=""><dc:format>image/svg+xml</dc:format><dc:type
         rdf:resource="http://purl.org/dc/dcmitype/StillImage" /></cc:Work></rdf:RDF></metadata><defs
   id="defs39" /><sodipodi:namedview
   pagecolor="#ffffff"
   bordercolor="#666666"
   borderopacity="1"
   objecttolerance="10"
   gridtolerance="10"
   guidetolerance="10"
   inkscape:pageopacity="0"
   inkscape:pageshadow="2"
   inkscape:window-width="1366"
   inkscape:window-height="745"
   id="namedview37"
   showgrid="false"
   inkscape:zoom="1"
   inkscape:cx="349.83628"
   inkscape:cy="187.12327"
   inkscape:window-x="-8"
   inkscape:window-y="-8"
   inkscape:window-maximized="1"
   inkscape:current-layer="Capa_1" />
<g
   id="g4"
   transform="matrix(0.53517335,0,0,0.53517335,107.90288,116.22853)">
	<path
   d="M 433.92688,408.74774 335.8464,310.66726 c 26.30991,-30.24744 42.23904,-69.71231 42.23904,-112.84624 0,-94.94835 -77.22943,-172.088287 -172.08829,-172.088287 -94.94835,0 -172.088291,77.229427 -172.088291,172.088287 0,94.85886 77.229431,172.08829 172.088291,172.08829 43.13393,0 82.5988,-15.92913 112.84624,-42.23904 l 98.08048,98.08048 c 2.32673,2.32672 5.45886,3.57958 8.50151,3.57958 3.04264,0 6.17477,-1.16337 8.5015,-3.57958 4.65345,-4.65346 4.65345,-12.34955 0,-17.00301 z M 57.981532,197.82102 c 0,-81.61441 66.401198,-147.926125 147.926128,-147.926125 81.61441,0 147.92612,66.401205 147.92612,147.926125 0,81.52492 -66.31171,148.01561 -147.92612,148.01561 -81.52493,0 -147.926128,-66.4012 -147.926128,-148.01561 z"
   id="path2"
   inkscape:connector-curvature="0"
   style="stroke-width:0.8948949" />
</g>
<g
   id="g6">
</g>
<g
   id="g8">
</g>
<g
   id="g10">
</g>
<g
   id="g12">
</g>
<g
   id="g14">
</g>
<g
   id="g16">
</g>
<g
   id="g18">
</g>
<g
   id="g20">
</g>
<g
   id="g22">
</g>
<g
   id="g24">
</g>
<g
   id="g26">
</g>
<g
   id="g28">
</g>
<g
   id="g30">
</g>
<g
   id="g32">
</g>
<g
   id="g34">
</g>
<ellipse
   style="fill:none;stroke:#000000;stroke-width:12.408;stroke-miterlimit:4;stroke-dasharray:none;stroke-opacity:1"
   id="path4552"
   ry="215.89636"
   rx="212.03244"
   cy="230.5"
   cx="228.63608" /></svg>